<?xml version="1.0" standalone="no"?>
<!DOCTYPE svg PUBLIC "-//W3C//DTD SVG 20010904//EN"
 "http://www.w3.org/TR/2001/REC-SVG-20010904/DTD/svg10.dtd">
<svg version="1.0" xmlns="http://www.w3.org/2000/svg"
 width="222.000000pt" height="222.000000pt" viewBox="0 0 222.000000 222.000000"
 preserveAspectRatio="xMidYMid meet">
<metadata>
Created by potrace 1.11, written by Peter Selinger 2001-2013
</metadata>
<g transform="translate(0.000000,222.000000) scale(0.100000,-0.100000)"
fill="#000000" stroke="none">
<path d="M427 1873 c-13 -12 -7 -68 13 -122 l21 -54 -38 -56 c-40 -58 -83
-167 -102 -259 -6 -29 -21 -74 -33 -100 -13 -28 -22 -72 -24 -111 -3 -55 0
-66 19 -81 21 -17 22 -26 23 -157 0 -128 2 -142 23 -171 17 -25 30 -32 56 -32
42 0 53 26 31 69 -18 34 -21 103 -6 132 17 30 50 23 89 -20 20 -21 56 -49 81
-61 25 -12 66 -33 92 -46 27 -13 53 -24 60 -24 6 0 31 -9 54 -21 42 -20 94
-88 94 -122 0 -15 39 -110 66 -159 8 -14 14 -32 14 -40 0 -16 62 -162 77 -180
6 -7 14 -24 18 -36 4 -13 16 -45 28 -70 12 -26 21 -50 22 -54 0 -13 11 -16 64
-19 52 -3 55 -2 58 24 2 15 -2 37 -10 49 -7 13 -12 32 -12 43 0 11 -2 22 -6
25 -11 9 -89 163 -89 177 0 7 -4 13 -10 13 -30 0 -15 143 18 173 15 14 21 14
54 -1 56 -27 78 -51 78 -88 0 -36 18 -84 32 -84 4 0 8 -6 8 -13 0 -18 33 -47
53 -47 9 0 24 11 33 25 14 22 15 32 6 63 -6 20 -14 58 -17 84 -5 40 -3 48 15
58 37 20 135 -6 264 -71 134 -67 150 -68 201 -7 21 25 25 40 25 98 0 55 -6 79
-30 128 -44 89 -57 145 -42 184 10 28 8 42 -14 106 -14 42 -22 78 -17 83 5 5
24 11 42 13 18 2 40 11 48 19 36 36 -48 187 -103 187 -22 0 -66 -25 -88 -49
-11 -12 -25 -21 -33 -21 -14 0 -70 40 -123 88 -40 36 -129 94 -305 197 -123
73 -233 144 -283 182 -51 41 -154 79 -232 87 -53 6 -72 3 -102 -12 l-37 -20
-16 24 c-8 13 -15 27 -15 31 0 4 -12 18 -27 30 -26 23 -53 29 -66 16z"/>
</g>
</svg>
